<svg width="100" height="100" viewBox="0 0 100 100" fill="none" xmlns="http://www.w3.org/2000/svg">
  <path d="M50 10C45.5 10 41.6667 13.3333 41.6667 17.5V51.6667C41.6667 53.8333 39.8333 55.8333 37.5 55.8333C35.1667 55.8333 33.3333 53.8333 33.3333 51.6667V38.3333C33.3333 34.1667 29.5 30.8333 25 30.8333C20.5 30.8333 16.6667 34.1667 16.6667 38.3333V63.3333L15.8333 61.6667C13.5 57.5 8.33333 56.6667 5 58.3333C1.66667 60.8333 0.833333 65.8333 3.33333 69.1667L20 90.8333H80L96.6667 69.1667C99.1667 65.8333 98.3333 60.8333 95 58.3333C91.6667 56.6667 86.5 57.5 84.1667 61.6667L83.3333 63.3333V38.3333C83.3333 34.1667 79.5 30.8333 75 30.8333C70.5 30.8333 66.6667 34.1667 66.6667 38.3333V51.6667C66.6667 53.8333 64.8333 55.8333 62.5 55.8333C60.1667 55.8333 58.3333 53.8333 58.3333 51.6667V17.5C58.3333 13.3333 54.5 10 50 10Z" fill="white"/>
</svg> 